<svg width="32" height="32" viewBox="0 0 32 32" fill="none" xmlns="http://www.w3.org/2000/svg">
<g clip-path="url(#clip0_2030_2)">
<path fill-rule="evenodd" clip-rule="evenodd" d="M15.4093 0C16.0169 0 16.484 0.537371 16.3996 1.13906L16.2797 1.9926L16.2788 2.00192L13.3661 21.0724L31.1149 29.4471C31.6068 29.6792 31.823 30.2618 31.6015 30.7586L31.2365 31.5774C31.1226 31.8343 30.8679 32 30.5868 32H1.1477C0.540994 32 0.0740612 31.4641 0.157119 30.8631L0.275114 30.0093L0.27696 29.999L4.73801 0.848725C4.81272 0.360537 5.23263 0 5.72651 0H15.4093ZM12.0976 29.3917H24.9043L12.9571 23.7544L12.0976 29.3917ZM2.96071 29.3917H9.5062L10.5402 22.6135L4.43321 19.7338L2.96071 29.3917ZM4.84311 17.0527L10.9501 19.9325L13.5951 2.60828H7.04864L4.84311 17.0527Z" fill="black"/>
</g>
<defs>
<clipPath id="clip0_2030_2">
<rect width="32" height="32" fill="white"/>
</clipPath>
</defs>
</svg>
